<mxfile host="app.diagrams.net" modified="2021-01-12T06:35:40.846Z" agent="5.0 (Windows)" etag="QXeEDZ6qDBQRaPc9Rbhc" version="14.1.8" type="github">
  <diagram id="6ny7MYcmJ75oyxdDwdRd" name="Page-1">
    <mxGraphModel dx="1038" dy="547" grid="1" gridSize="10" guides="1" tooltips="1" connect="1" arrows="1" fold="1" page="1" pageScale="1" pageWidth="1169" pageHeight="827" math="0" shadow="0">
      <root>
        <mxCell id="0" />
        <mxCell id="1" parent="0" />
        <mxCell id="8BgREITHZNaEQP0OXt_D-9" value="MOTOR VEHICLE REQUISITION AND ISSUANCE PROCESS" style="swimlane;" vertex="1" parent="1">
          <mxGeometry x="10" y="10" width="860" height="680" as="geometry" />
        </mxCell>
        <mxCell id="8BgREITHZNaEQP0OXt_D-10" value="Start" style="rounded=1;whiteSpace=wrap;html=1;" vertex="1" parent="8BgREITHZNaEQP0OXt_D-9">
          <mxGeometry x="300" y="50" width="90" height="50" as="geometry" />
        </mxCell>
        <mxCell id="8BgREITHZNaEQP0OXt_D-11" value="Officer in need fills motor vehicle requisition form and submit to supervisor for recommendation" style="rounded=0;whiteSpace=wrap;html=1;" vertex="1" parent="8BgREITHZNaEQP0OXt_D-9">
          <mxGeometry x="260" y="170" width="170" height="70" as="geometry" />
        </mxCell>
        <mxCell id="8BgREITHZNaEQP0OXt_D-13" value="" style="edgeStyle=orthogonalEdgeStyle;rounded=0;orthogonalLoop=1;jettySize=auto;html=1;" edge="1" parent="8BgREITHZNaEQP0OXt_D-9" source="8BgREITHZNaEQP0OXt_D-10" target="8BgREITHZNaEQP0OXt_D-11">
          <mxGeometry relative="1" as="geometry">
            <mxPoint x="345" y="175" as="targetPoint" />
          </mxGeometry>
        </mxCell>
      </root>
    </mxGraphModel>
  </diagram>
</mxfile>
